<?xml version="1.0" encoding="utf-8"?>
<!-- Generator: Adobe Illustrator 25.0.1, SVG Export Plug-In . SVG Version: 6.00 Build 0)  -->
<svg version="1.1" id="Artwork" xmlns="http://www.w3.org/2000/svg" xmlns:xlink="http://www.w3.org/1999/xlink" x="0px" y="0px"
	 viewBox="0 0 290 119.5" style="enable-background:new 0 0 290 119.5;" xml:space="preserve">
<style type="text/css">
	.Arched_x0020_Green{fill:url(#SVGID_1_);stroke:#FFFFFF;stroke-width:0.25;stroke-miterlimit:1;}
	.st0{fill:#FFFFFF;}
</style>
<linearGradient id="SVGID_1_" gradientUnits="userSpaceOnUse" x1="-128.6475" y1="305.873" x2="-127.9404" y2="305.1659">
	<stop  offset="0" style="stop-color:#20AC4B"/>
	<stop  offset="0.9831" style="stop-color:#19361A"/>
</linearGradient>
<path class="st0" d="M284.5,89.9h-14.7l2.4-9.7h-29.5l-2.4,9.7H226v-2c0.2-1.1,0.4-2.2,0.7-3.5c2.6-10.5,9.5-20.9,21.4-20.9
	c4.7,0,9.4,1.8,8.8,8.3h17.6c0.7-3,1.9-8.2-1.5-13c-3.7-5.2-11.3-7.3-21.1-7.3c-7,0-17.1,1.1-25.9,6.8v-53h58.5V89.9z M250,104.2
	c-3.3,0.6-6.7,1-9.8,1c-8.4,0-14.3-3.9-14.4-13.1H253L250,104.2z M216.3,56l0,12.1c-4.1,5.6-6.6,11.8-7.8,16.7
	c-0.4,1.7-0.8,3.4-0.9,5.1h-8.6l7.3-34.9l-24.7,0l-22.1,34.9h-1.6V5.5h58.5V56z M183.6,89.9h-8.8L188.1,69L183.6,89.9z M148.1,55
	h-14.6l-10,34.9H108c7.9-2.9,12.7-8.5,14.2-16.8c1.2-6.4,0.6-10.7-2-13.8c-3.9-4.7-11.8-4.3-18.8-4.3c-1.2,0-11.6,0-11.6,0V5.5h58.4
	V55z M138.8,89.9l6.2-21.9l0.2,21.9H138.8z M96.2,81.6L96.2,81.6c-0.6,0-1.2,0.1-1.8,0.1c-0.9,0-1.5,0-2.1,0l-3.7,0l1.7-6.4l0.8-3.2
	l2-7.4c0.9,0,1.7,0,2.5,0c1,0,2,0,2.9,0c4.9,0,8.1,0.3,9.2,1.9c0.9,1.2,0.8,3.3-0.3,6.4C105.7,78.3,103.4,81.1,96.2,81.6 M80,58.1
	l-0.9,3l-8.4,27.8l-0.3,1H42.9l-2.1-4.5l29.7-30.3H51.3L28.1,80l7.5-25H21.6V5.5H80V58.1z M223.8,3.2v56.8c-2,1.6-3.7,3.2-5.2,5.1
	V3.2h-62.9V55h-5.2V3.2H87.5v51.8h-5.2V3.2H19.3v59L3.3,115.8h14.1l7.1-23.7h2l11.7,23.7h17.1L43.9,92.1h25.8l-7.2,23.7H78l7.1-23.6
	h3.4v-0.1h4.9h0.4h29.1l-6.8,23.6h15.6l6.6-23.6h7l0.2,23.6h13.1l15-23.6h9.8l-5.1,23.6h15.3l5-23.6h8.9c-0.4,7.3,1.5,14,6.4,18.5
	c5.9,5.5,15.1,6.5,21.8,6.5c9.2,0,18.8-1.3,28.5-3.5l5.3-21.5h17.5V3.2H223.8z"/>
</svg>
